<svg xmlns="http://www.w3.org/2000/svg" width="20" height="21.001" viewBox="0 0 20 21.001">
  <g id="Сгруппировать_56" data-name="Сгруппировать 56" transform="translate(-1785.195 -26.636)">
    <path id="Контур_6" data-name="Контур 6" d="M1804.811,47.637a.379.379,0,0,0,.385-.371c0-4.573-2.452-7.38-6.423-8.385a11.052,11.052,0,0,0,2.49-6.392,6.071,6.071,0,0,0-12.135,0,11.112,11.112,0,0,0,2.49,6.391c-3.971,1-6.423,3.812-6.423,8.385a.379.379,0,0,0,.385.371Zm-7.51-7.431c3.24.5,5.731,2.26,6.183,5.844h-16.577c.452-3.585,2.942-5.348,6.183-5.844a3.665,3.665,0,0,0,4.211,0Zm2.317-7.717a9.166,9.166,0,0,1-2.894,6.161,2.158,2.158,0,0,1-3.058,0,9.165,9.165,0,0,1-2.894-6.161,4.426,4.426,0,0,1,8.846,0Z" fill="#fff"/>
  </g>
</svg>
